PathFileType	4	(x/y/z)	S08_P20_T07
DataRate	CameraRate	NumFrames	NumMarkers	Units	OrigDataRate	OrigDataStartFrame	OrigNumFrames
240	240	8	51	mm	240	47	373
Frame#	Time	Sternum			R.Acromium			L.Acromium			Top.Head			R.ASIS			L.ASIS			R.PSIS			L.PSIS			R.Great.Tro			L.Great.Tro			R.Iliac.Crest			L.Iliac.Crest			V.Sacral			R.Thigh.Upper.Post			R.Thigh.Lower.Ant			R.Thigh.Lower.Post			R.Thigh.Upper.Ant			R.Knee.Lat			R.Knee.Med			R.Shank.Upper.Post			R.Shank.Lower.Ant			R.Shank.Lower.Post			R.Shank.Upper.Ant			R.Ankle.Lat			R.Ankle.Med			R.Heel.Upper			R.Heel.Med			R.Heel.Lat			R.Toe.Lat			R.Toe.Med			R.Toe.Tip			L.Thigh.Upper.Post			L.Thigh.Lower.Ant			L.Thigh.Lower.Post			L.Thigh.Upper.Ant			L.Knee.Lat			L.Knee.Med			L.Shank.Upper.Post			L.Shank.Lower.Ant			L.Shank.Lower.Post			L.Shank.Upper.Ant			L.Ankle.Lat			L.Ankle.Med			L.Heel.Upper			L.Heel.Med			L.Heel.Lat			L.Toe.Lat			L.Toe.Med			L.Toe.Tip			Cervical.Spine			Back			
		X1	Y1	Z1	X2	Y2	Z2	X3	Y3	Z3	X4	Y4	Z4	X5	Y5	Z5	X6	Y6	Z6	X7	Y7	Z7	X8	Y8	Z8	X9	Y9	Z9	X10	Y10	Z10	X11	Y11	Z11	X12	Y12	Z12	X13	Y13	Z13	X14	Y14	Z14	X15	Y15	Z15	X16	Y16	Z16	X17	Y17	Z17	X18	Y18	Z18	X19	Y19	Z19	X20	Y20	Z20	X21	Y21	Z21	X22	Y22	Z22	X23	Y23	Z23	X24	Y24	Z24	X25	Y25	Z25	X26	Y26	Z26	X27	Y27	Z27	X28	Y28	Z28	X29	Y29	Z29	X30	Y30	Z30	X31	Y31	Z31	X32	Y32	Z32	X33	Y33	Z33	X34	Y34	Z34	X35	Y35	Z35	X36	Y36	Z36	X37	Y37	Z37	X38	Y38	Z38	X39	Y39	Z39	X40	Y40	Z40	X41	Y41	Z41	X42	Y42	Z42	X43	Y43	Z43	X44	Y44	Z44	X45	Y45	Z45	X46	Y46	Z46	X47	Y47	Z47	X48	Y48	Z48	X49	Y49	Z49	X50	Y50	Z50	X51	Y51	Z51	

47	0.19167	-1101	1224	291	-1214.6	1461.9	473.3	-1242.7	1491.1	138.31	-1211.7	1782.9	324.58	-1133.7	1008.1	402.41	-1137.7	1020.8	172.57	NaN	NaN	NaN	NaN	NaN	NaN	-1212.3	895.31	467.76	-1220.8	913.94	104.59	-1231.5	1074.8	453.59	-1233.9	1102.1	145.71	-1354.5	998.06	283.63	-1190.3	690.18	460.19	-1095.2	605.38	444.02	-1166.5	602.73	445.17	-1112.1	698.01	457.06	-1121	507.27	438.5	-1127.2	506.64	302.77	-1287.7	425.75	440.79	-1294.3	336.82	419.83	-1344.3	374.9	430.99	-1238.5	384.92	426.87	-1476.2	275.77	402.23	-1441.2	255.27	323.85	-1521	302.36	349.89	-1534	281.64	321.55	-1539.4	288.26	381.87	-1483.2	118.12	424.63	-1453.5	114.25	310.58	-1413.6	61.327	355.08	-1198.7	697.35	124.99	-1095.5	626.9	149.75	-1164.5	614.64	145.35	-1125.6	707.62	123.81	-1131.4	520.87	167.12	-1133.3	524.42	291.37	-1190.7	341.24	166.62	-1126.5	254.11	194.55	-1198.8	267.89	184.6	-1125.7	327.17	175.86	-1187.9	100.53	205.44	-1165.2	103.6	291.87	-1239.2	74.157	254.33	-1227.5	40.076	283.83	-1231.7	49.203	220.27	-1055.5	40.806	189.51	-1037.6	43.777	305.18	-974.31	60.426	257.65	-1291.9	1520.4	303.37	-1342.7	1238.2	311.19
48	0.19583	-1095.6	1224.5	291.1	-1208.9	1462.4	473.28	-1237.1	1491.7	138.25	-1206.1	1783.5	324.43	-1128.5	1008.8	402.22	-1132.1	1021.3	172.44	NaN	NaN	NaN	NaN	NaN	NaN	-1205	895.65	467.64	-1215.8	914.39	104.41	-1226.5	1075.4	453.32	-1228.3	1102.6	145.46	-1349.2	998.64	283.18	-1181.7	691.18	459.88	-1085.7	607.48	443.93	-1157	603.99	444.87	-1103.7	699.9	456.98	-1110.1	509.18	438.49	-1116.7	508.4	302.7	-1276.1	427.15	440.87	-1282.9	338.21	419.77	-1333	376.2	431.01	-1227.8	386.48	426.77	-1464.6	277	401.96	-1429.7	256.47	323.77	-1510	302.69	349.61	-1522.8	281.57	321.39	-1528.2	288.53	381.69	-1469.8	119.66	425.56	-1440.3	115.19	311.52	-1400	62.665	356.45	-1195.5	697.84	125.08	-1093	626.43	149.57	-1161.9	614.85	145.33	-1122.4	707.51	123.6	-1129.3	520.82	167.08	-1131	524.41	291.37	-1189.4	341.56	166.59	-1125.7	254.05	194.51	-1197.9	268.16	184.71	-1124.5	327.07	175.77	-1187.7	100.64	205.5	-1165	103.7	291.91	-1239.2	74.327	254.32	-1227.5	40.187	283.83	-1231.7	49.326	220.25	-1055.5	40.755	189.48	-1037.3	43.78	305.1	-974.23	60.167	257.61	-1286	1521	303.26	-1337.4	1239	310.92
49	0.2	-1090.3	1225.1	291.2	-1203.4	1463	473.26	-1231.5	1492.3	138.19	-1200.5	1784.2	324.29	-1123.3	1009.5	402.05	-1126.4	1021.9	172.32	NaN	NaN	NaN	NaN	NaN	NaN	-1197.8	896.09	467.61	-1210.8	914.85	104.24	-1221.4	1076	453.06	-1222.7	1103.1	145.2	-1343.9	999.25	282.72	-1173.1	692.27	459.57	-1076.3	609.67	443.79	-1147.5	605.35	444.57	-1095.3	701.87	456.88	-1099.3	511.18	438.44	-1106.2	510.24	302.61	-1264.6	428.46	440.9	-1271.5	339.5	419.69	-1321.6	377.31	430.99	-1216.8	388.04	426.66	-1452.8	277.9	401.65	-1418	257.39	323.66	-1499	302.59	349.28	-1511.5	281.06	321.21	-1516.9	288.35	381.5	-1456.1	120.94	426.5	-1426.8	115.87	312.47	-1385.8	63.938	357.85	-1192.3	698.35	125.19	-1090.5	626	149.43	-1159.3	615.09	145.33	-1119.1	707.43	123.42	-1127.3	520.79	167.07	-1128.7	524.39	291.39	-1188.1	341.9	166.58	-1124.9	254.02	194.47	-1197.1	268.45	184.83	-1123.3	326.99	175.7	-1187.6	100.74	205.57	-1164.9	103.82	291.97	-1239.1	74.506	254.31	-1227.4	40.307	283.82	-1231.6	49.457	220.24	-1055.4	40.707	189.45	-1037	43.787	305.02	-974.14	59.904	257.57	-1280.3	1521.7	303.16	-1332.1	1239.7	310.66
50	0.20417	-1084.9	1225.7	291.3	-1197.8	1463.6	473.24	-1225.8	1493	138.14	-1194.9	1784.8	324.17	-1118.2	1010.2	401.9	-1120.8	1022.4	172.21	NaN	NaN	NaN	NaN	NaN	NaN	-1190.8	896.63	467.67	-1205.9	915.31	104.09	-1216.4	1076.8	452.79	-1217.1	1103.7	144.92	-1338.6	999.88	282.27	-1164.6	693.42	459.27	-1066.9	611.94	443.6	-1138.1	606.8	444.26	-1087	703.9	456.76	-1088.6	513.27	438.34	-1095.9	512.16	302.5	-1253.2	429.68	440.91	-1260.1	340.68	419.57	-1310.3	378.25	430.92	-1205.6	389.6	426.55	-1440.9	278.47	401.32	-1406.2	258.02	323.53	-1487.9	302.09	348.93	-1500	280.1	320.99	-1505.5	287.72	381.29	-1442	121.97	427.43	-1412.9	116.29	313.43	-1371.3	65.133	359.27	-1189.2	698.88	125.31	-1088.1	625.61	149.31	-1156.8	615.35	145.33	-1115.9	707.38	123.26	-1125.4	520.78	167.06	-1126.5	524.36	291.42	-1186.8	342.25	166.58	-1124.1	254	194.45	-1196.3	268.76	184.97	-1122.1	326.94	175.64	-1187.5	100.85	205.63	-1164.7	103.94	292.04	-1239.1	74.696	254.31	-1227.4	40.436	283.82	-1231.6	49.595	220.23	-1055.4	40.662	189.43	-1036.6	43.791	304.94	-974.04	59.636	257.54	-1274.5	1522.4	303.06	-1326.8	1240.5	310.39
51	0.20833	-1079.6	1226.3	291.41	-1192.3	1464.3	473.23	-1220.2	1493.7	138.1	-1189.1	1785.5	324.05	-1113.1	1011	401.77	-1115.1	1023	172.1	NaN	NaN	NaN	NaN	NaN	NaN	-1183.9	897.25	467.78	-1200.9	915.78	103.96	-1211.4	1077.5	452.52	-1211.4	1104.2	144.64	-1333.4	1000.5	281.82	-1156.2	694.64	458.98	-1057.5	614.27	443.37	-1128.8	608.32	443.96	-1078.8	705.99	456.62	-1078.1	515.43	438.21	-1085.6	514.15	302.38	-1241.9	430.79	440.87	-1248.6	341.76	419.44	-1299	379.01	430.81	-1194.2	391.13	426.45	-1428.9	278.7	400.97	-1394.2	258.36	323.38	-1476.7	301.19	348.56	-1488.4	278.73	320.77	-1494.1	286.65	381.08	-1427.5	122.73	428.36	-1398.7	116.47	314.38	-1356.3	66.244	360.72	-1186	699.43	125.45	-1085.6	625.25	149.22	-1154.2	615.64	145.35	-1112.6	707.36	123.12	-1123.5	520.79	167.06	-1124.2	524.34	291.45	-1185.6	342.6	166.59	-1123.4	254.01	194.43	-1195.5	269.09	185.11	-1121	326.92	175.59	-1187.3	100.96	205.7	-1164.5	104.08	292.12	-1239	74.894	254.32	-1227.4	40.574	283.82	-1231.5	49.739	220.23	-1055.3	40.619	189.42	-1036.3	43.787	304.86	-973.94	59.363	257.51	-1268.9	1523.1	302.96	-1321.5	1241.2	310.11
52	0.2125	-1074.3	1226.9	291.51	-1186.9	1464.9	473.21	-1214.5	1494.4	138.07	-1183.4	1786.1	323.96	-1108	1011.8	401.65	-1109.5	1023.5	171.99	NaN	NaN	NaN	NaN	NaN	NaN	-1177.2	897.97	467.93	-1196	916.27	103.84	-1206.3	1078.3	452.26	-1205.8	1104.7	144.35	-1328.1	1001.2	281.4	-1147.9	695.91	458.71	-1048.3	616.67	443.1	-1119.6	609.91	443.68	-1070.6	708.12	456.46	-1067.7	517.65	438.04	-1075.5	516.21	302.25	-1230.7	431.8	440.8	-1237	342.73	419.29	-1287.8	379.58	430.66	-1182.7	392.63	426.36	-1416.7	278.6	400.61	-1382	258.4	323.22	-1465.3	299.88	348.18	-1476.7	276.94	320.54	-1482.5	285.15	380.88	-1412.7	123.24	429.28	-1384.2	116.41	315.33	-1340.9	67.264	362.16	-1182.8	699.99	125.58	-1083.1	624.93	149.16	-1151.6	615.95	145.36	-1109.3	707.37	123	-1121.7	520.8	167.08	-1121.9	524.32	291.5	-1184.4	342.96	166.61	-1122.6	254.03	194.42	-1194.7	269.44	185.26	-1119.9	326.92	175.56	-1187.1	101.08	205.78	-1164.4	104.22	292.21	-1239	75.1	254.33	-1227.4	40.723	283.83	-1231.4	49.889	220.23	-1055.3	40.578	189.42	-1036	43.771	304.78	-973.84	59.085	257.49	-1263.2	1523.8	302.87	-1316.1	1242	309.83
53	0.21667	-1069	1227.6	291.61	-1181.5	1465.5	473.19	-1208.9	1495	138.04	-1177.6	1786.8	323.87	-1102.9	1012.7	401.55	-1103.9	1024	171.9	NaN	NaN	NaN	NaN	NaN	NaN	-1170.7	898.76	468.11	-1191.2	916.76	103.74	-1201.3	1079.2	452	-1200.1	1105.2	144.06	-1322.9	1001.9	280.99	-1139.6	697.23	458.48	-1039.1	619.1	442.8	-1110.4	611.56	443.42	-1062.5	710.29	456.29	-1057.5	519.92	437.84	-1065.6	518.32	302.1	-1219.5	432.69	440.69	-1225.4	343.59	419.14	-1276.5	379.99	430.48	-1171.2	394.09	426.26	-1404.4	278.16	400.26	-1369.8	258.15	323.06	-1453.9	298.18	347.8	-1464.8	274.75	320.31	-1470.9	283.22	380.68	-1397.7	123.48	430.19	-1369.3	116.12	316.28	-1325.1	68.192	363.61	-1179.6	700.57	125.72	-1080.5	624.65	149.12	-1149	616.28	145.38	-1105.9	707.41	122.9	-1119.8	520.84	167.1	-1119.7	524.29	291.55	-1183.2	343.32	166.64	-1121.9	254.07	194.43	-1193.9	269.81	185.39	-1118.8	326.95	175.54	-1186.9	101.21	205.86	-1164.2	104.38	292.3	-1239	75.315	254.35	-1227.3	40.882	283.84	-1231.3	50.044	220.24	-1055.2	40.541	189.42	-1035.7	43.738	304.72	-973.73	58.802	257.47	-1257.6	1524.5	302.77	-1310.8	1242.8	309.54
54	0.22083	-1063.7	1228.3	291.72	-1176.1	1466.2	473.17	-1203.3	1495.7	138.02	-1171.7	1787.5	323.79	-1097.8	1013.6	401.46	-1098.3	1024.6	171.81	NaN	NaN	NaN	NaN	NaN	NaN	-1164.3	899.62	468.32	-1186.3	917.27	103.66	-1196.3	1080	451.75	-1194.5	1105.7	143.78	-1317.6	1002.6	280.6	-1131.4	698.58	458.29	-1030.1	621.58	442.46	-1101.3	613.25	443.19	-1054.5	712.49	456.11	-1047.3	522.21	437.61	-1055.7	520.49	301.93	-1208.5	433.48	440.54	-1213.7	344.34	418.98	-1265.3	380.21	430.27	-1159.6	395.49	426.18	-1392	277.39	399.91	-1357.4	257.62	322.91	-1442.3	296.09	347.44	-1452.9	272.17	320.1	-1459.1	280.89	380.5	-1382.3	123.48	431.09	-1354.2	115.62	317.21	-1309	69.027	365.05	-1176.4	701.16	125.86	-1077.9	624.41	149.12	-1146.4	616.63	145.39	-1102.5	707.47	122.82	-1118	520.88	167.13	-1117.4	524.27	291.6	-1182	343.67	166.68	-1121.2	254.12	194.44	-1193.1	270.18	185.52	-1117.7	327	175.54	-1186.7	101.35	205.95	-1164.1	104.54	292.4	-1238.9	75.536	254.38	-1227.3	41.05	283.85	-1231.3	50.204	220.26	-1055.2	40.506	189.42	-1035.4	43.685	304.66	-973.61	58.516	257.46	-1252.1	1525.2	302.68	-1305.5	1243.5	309.24
